<?xml version="1.0" encoding="utf-8"?>
<!-- Generator: Adobe Illustrator 16.0.0, SVG Export Plug-In . SVG Version: 6.00 Build 0)  -->
<!DOCTYPE svg PUBLIC "-//W3C//DTD SVG 1.1//EN" "http://www.w3.org/Graphics/SVG/1.1/DTD/svg11.dtd">
<svg version="1.1" id="Layer_1" xmlns="http://www.w3.org/2000/svg" xmlns:xlink="http://www.w3.org/1999/xlink" x="0px" y="0px"
	 width="126px" height="126px" viewBox="0 0 126 126" enable-background="new 0 0 126 126" xml:space="preserve">
<g>
	<circle cx="39.603" cy="28.86" r="14.227"/>
	<path d="M112.618,80.045c-6.896-10.631-16.936-18.316-28.565-22.96c-1.612-2.756-3.27-5.138-5.075-7.263l6.175-11.405
		c0.093-0.171,0.043-0.385-0.115-0.498c-0.158-0.114-0.376-0.093-0.508,0.051l-8.29,8.94c-2.721-2.61-5.825-4.826-9.606-6.917
		c4.622-6.726,10.187-11.979,17.101-16.838c6.404-4.503-0.093-14.823-6.546-10.288c-9.87,6.939-17.539,14.66-23.676,25.066
		c-0.179,0.303-0.319,0.604-0.441,0.902c-1.28,0.908-2.356,2.141-3.085,3.654c-0.193,0.402-0.346,0.813-0.48,1.226
		c-7.713,2.11-15.603,2.702-23.647,2.595c-7.87-0.106-7.372,12.077,0.459,12.182c9.373,0.125,18.751-0.755,27.747-3.412
		c0.133,0.072,0.261,0.151,0.398,0.218c4.01,1.933,6.701,3.625,8.932,5.896l-8.619,9.382l-4.882-2.23l-2.251-9.83
		c-0.075-0.331-0.348-0.578-0.684-0.621c-0.337-0.043-0.663,0.129-0.819,0.429c-0.226,0.437-1.87,3.605-4.227,8.113
		c-3.159,0.429-8.797,2.168-14.04,8.815c-3.247,4.117-4.529,8.791-6.016,14.204c-1,3.639-2.132,7.763-4.035,12.352
		c-1.259,3.036-4.094,7.559-5.579,9.693c0.287,0.039,0.574,0.077,0.859,0.107l13.034,1.088c4.759,0.131,9.679,0.268,14.475,0.906
		c1.874,0.249,3.622,0.437,5.341,0.574c0.422,0.033,0.844,0.059,1.266,0.081c0.126,0.007,0.25-0.016,0.363-0.065
		c0.082-0.036,0.158-0.085,0.225-0.146c0.159-0.146,0.253-0.351,0.26-0.567c0.357-10.899,0.726-20.12,1.097-24.471l0.77,0.02
		l10.792,0.352l1.787,0.087c2.754,0.145,5.136,0.271,6.615-0.371c0.062-0.026,0.123-0.055,0.181-0.085
		c2.521-1.262,3.01-2.803,3.521-6.018c0.177-1.108,0.099-1.995-0.247-2.789c-0.572-1.32-1.832-2.328-4.349-3.479l-4.666-2.131
		l4.271-7.219c0.386,0.686,0.776,1.403,1.18,2.182c0.683,1.319,1.633,2.406,2.746,3.243c0.086,0.186,0.174,0.371,0.279,0.557
		c4.332,7.667,6.089,16.493,4.03,25.124c-2.032,8.512,11.163,11.589,13.188,3.106c2.271-9.519,1.184-19.198-2.293-28.126
		c5.674,3.516,10.58,8.248,14.218,13.858C105.935,94.637,117.382,87.393,112.618,80.045z M67.565,78.192
		c2.088,0.956,3.146,1.749,3.539,2.653c0.217,0.501,0.259,1.102,0.133,1.894c-0.509,3.201-0.93,3.968-2.65,4.83
		c-0.033,0.017-0.066,0.032-0.1,0.047c-1.132,0.49-3.444,0.369-5.892,0.239l-1.803-0.087l-12.343-0.394
		c-0.121-0.003-0.237,0.021-0.341,0.065c-0.262,0.114-0.454,0.363-0.483,0.664l-0.007,0.07c-0.386,4.132-0.768,11.84-1.136,22.922
		c-0.134-0.009-0.268-0.019-0.402-0.029c-1.69-0.134-3.409-0.319-5.256-0.564c-4.878-0.65-9.843-0.787-14.642-0.92
		c-2.211-0.061-4.482-0.124-6.735-0.237c1.759-1.819,2.755-3.262,3.144-3.872c4.348-6.819,19.567-35.985,23.97-44.456l1.849,8.076
		c0.056,0.245,0.223,0.449,0.451,0.553L67.565,78.192z"/>
</g>
</svg>
